<?xml version="1.0" encoding="UTF-8"?>
<svg width="172px" height="31px" viewBox="0 0 172 31" version="1.1" xmlns="http://www.w3.org/2000/svg" xmlns:xlink="http://www.w3.org/1999/xlink">
    <!-- Generator: Sketch 48.2 (47327) - http://www.bohemiancoding.com/sketch -->
    <title>Group 4</title>
    <desc>Created with Sketch.</desc>
    <defs></defs>
    <g id="Page-1" stroke="none" stroke-width="1" fill="none" fill-rule="evenodd">
        <g id="Group-4" fill-rule="nonzero">
            <g id="Group-3">
                <g id="Group-2">
                    <g id="Group">
                        <g id="new-breathe-logo-2017-on-dark">
                            <path d="M78.16,16.225 C78.057,16.668 77.992,17.089 77.94,17.466 L89.305,17.466 C89.068,14.251 87.461,11.388 83.733,11.388 C81.057,11.388 79.566,13.045 78.829,14.418 C78.526853,14.9878963 78.3021991,15.5956055 78.161,16.225 L78.16,16.225 Z M91.25,20.535 C90.88,20.565 90.497,20.574 90.133,20.574 L77.866,20.574 C78.094,25.854 81.022,27.717 84.098,27.717 C87.153,27.717 88.282,26.321 89.745,24.049 C90.177,23.393 90.621,22.838 91.51,22.838 C92.469,22.838 93.166,23.652 93.166,24.514 C93.166,25.272 92.754,26.038 92.431,26.569 C91.462,28.189 89.308,30.987 83.936,30.987 C76.82,30.987 73.612,25.905 73.612,19.513 C73.612,13.243 76.86,8.118 83.855,8.118 C92.457,8.118 93.572,16.087 93.572,17.954 C93.572,19.623 92.924,20.409 91.25,20.535 Z M43.122,19.61 C43.122,26.058 46.498,27.489 49.486,27.489 C52.053,27.489 55.606,25.798 55.606,19.609 C55.606,15.065 53.109,11.667 49.434,11.667 C47.413,11.667 43.122,12.621 43.122,19.61 Z M41.116,0 C43.158,0 43.162,1.841 43.162,3.316 L43.162,10.838 C44.182,9.582 46.552,8.118 50.256,8.118 C57.791,8.118 59.851,14.794 59.851,19.348 C59.851,23.464 58.092,30.988 50.175,30.988 C45.503,30.988 39.017,30.408 39.017,19.641 L39,3.237 C39,1.762 39.005,0 41.046,0 L41.116,0 Z M114.863,24.27 C114.772,28.125 115.423,31 110.583,31 L103.04,30.987 C98.203,30.987 95.916,27.765 95.916,24.597 C95.916,19.462 100.639,18.487 103.056,18.006 C103.986,17.802 108.146,17.067 108.956,16.862 C109.542204,16.7087031 110.122006,16.5318935 110.694,16.332 C110.594,13.022 110.03,11.388 106.24,11.388 C103.831,11.388 101.434,12.123 100.623,14.138 C100.237,15.137 99.876,16.062 98.585,16.062 C97.58,16.062 96.686,15.285 96.686,14.223 C96.686,12.809 98.211,8.118 105.997,8.118 C114.28,8.118 114.863,12.22 114.863,17.216 L114.863,24.271 L114.863,24.27 Z M110.706,26.908 C110.785,24.134 110.726,21.74 110.74,19.571 C110.252,19.754 109.622,19.966 108.781,20.156 C106.275,20.728 104.295,21.014 102.638,21.464 C100.469,22.07 100.16,23.627 100.16,24.35 C100.16,25.671 101.18,27.587 103.893,27.738 C103.893,27.738 110.673,28.066 110.706,26.908 L110.706,26.908 Z M169.678,20.535 C169.308,20.565 168.927,20.574 168.562,20.574 L156.294,20.574 C156.523,25.854 159.451,27.717 162.526,27.717 C165.582,27.717 166.71,26.321 168.174,24.049 C168.607,23.393 169.05,22.838 169.939,22.838 C170.897,22.838 171.595,23.652 171.595,24.514 C171.595,25.272 171.183,26.038 170.86,26.569 C169.89,28.189 167.737,30.987 162.365,30.987 C155.249,30.987 152.041,25.905 152.041,19.513 C152.041,13.243 155.289,8.118 162.284,8.118 C170.886,8.118 172,16.087 172,17.954 C172,19.623 171.353,20.409 169.678,20.535 L169.678,20.535 Z M156.59,16.225 C156.486,16.668 156.42,17.089 156.37,17.466 L167.734,17.466 C167.497,14.251 165.89,11.388 162.162,11.388 C159.485,11.388 157.995,13.045 157.258,14.418 C156.955402,14.9876945 156.730725,15.5954655 156.59,16.225 L156.59,16.225 Z M61.443,27.75 C61.443,29.225 61.448,30.987 63.49,30.987 L63.56,30.987 C65.602,30.987 65.606,29.147 65.606,27.672 L65.609,20.906 C65.609,19.689 65.575,18.514 65.6,17.436 C65.671,14.548 66.085,12.158 69.741,12.209 C70.951,12.226 71.705,12.824 72.661,12.824 C73.353,12.824 74.369,12.074 74.399,10.861 C74.456,8.544 70.026,7.021 65.786,8.811 C63.636,9.72 61.485,11.704 61.463,15.986 L61.443,27.75 Z M119.05,4.877 C119.05,3.402 119.055,1.64 121.096,1.64 L121.166,1.64 C123.209,1.64 123.213,3.481 123.213,4.956 L123.221,8.287 L125.23,8.287 C126.3,8.287 127.735,8.7 127.735,10.204 C127.735,11.472 126.427,12.164 125.351,12.164 L123.221,12.164 L123.221,24.144 C123.221,26.359 123.375,27.43 125.008,27.43 C125.332,27.43 126.79,27.184 127.074,27.184 C127.931,27.184 128.608,27.774 128.608,28.779 C128.608,30.789 125.648,30.865 124.319,30.865 C121.181,30.865 119.471,29.533 119.137,26.53 C119.058,25.822 119.057,25.1 119.057,24.432 L119.05,4.877 L119.05,4.877 Z M131.501,3.237 C131.501,1.762 131.506,0 133.548,0 L133.618,0 C135.66,0 135.664,1.841 135.664,3.316 L135.664,11.079 C137.065,9.478 138.876,8.119 141.947,8.119 C144.59,8.119 146.541,9.099 147.98,10.813 C148.764,11.716 149.142,12.876 149.33,13.93 C149.516,14.978 149.517,15.953 149.517,16.519 L149.522,27.672 C149.522,29.146 149.518,30.987 147.477,30.987 L147.407,30.987 C145.365,30.987 145.36,29.225 145.36,27.75 L145.354,17.38 C145.354,16.17 145.266,14.42 144.75,13.525 C144.048,12.329 142.667,11.675 141.299,11.675 C139.417,11.675 137.469,12.731 136.599,14.415 C136.068,15.414 135.663,16.257 135.663,20.66 L135.664,27.672 C135.664,29.146 135.66,30.987 133.618,30.987 L133.548,30.987 C131.506,30.987 131.501,29.225 131.501,27.75 L131.501,3.237 Z M23.817,13.3 C26.626,13.3 29.037,15.185 29.783,17.87 C30.5413452,17.9932597 31.2697006,18.2582087 31.93,18.651 C32.3294311,17.6544671 32.534125,16.5906023 32.533,15.517 C32.533,11.059 29.077,7.43 24.734,7.209 C24.078,3.275 20.71,0.274 16.643,0.274 C12.576,0.274 9.21,3.272 8.552,7.204 C8.439,7.2 8.33,7.187 8.216,7.187 C3.678,7.187 0,10.917 0,15.517 C0,20.118 3.678,23.848 8.216,23.848 L12.155,23.848 C12.269,20.647 14.745,18.046 17.87,17.802 C18.639,15.152 21.033,13.3 23.817,13.3 Z" id="Shape" fill="#26415F"></path>
                            <path d="M28.941,20.445 L28.095,20.403 L27.953,19.565 C27.6124887,17.5057833 25.8301773,15.9965339 23.743,16 C21.6569945,15.9972789 19.8757098,17.5051709 19.534,19.563 L19.379,20.483 L18.442,20.442 L18.276,20.432 C15.9100121,20.432 13.992,22.3500121 13.992,24.716 C13.992,27.0819879 15.9100121,29 18.276,29 L28.724,29 C31.0866344,28.9950377 32.9994538,27.0786395 33,24.716 C33.0023002,22.4377651 31.2164025,20.5585907 28.941,20.445" id="Shape" fill="#1370ED"></path>
                        </g>
                    </g>
                </g>
            </g>
        </g>
    </g>
</svg>