<?xml version="1.0" encoding="UTF-8"?>
<svg width="65px" height="65px" viewBox="0 0 65 65" version="1.1" xmlns="http://www.w3.org/2000/svg" xmlns:xlink="http://www.w3.org/1999/xlink">
    <!-- Generator: sketchtool 61.1 (101010) - https://sketch.com -->
    <title>29EC0744-11AC-4043-B889-44552EABBB80@3x</title>
    <desc>Created with sketchtool.</desc>
    <g id="Login" stroke="none" stroke-width="1" fill="none" fill-rule="evenodd">
        <g transform="translate(-768.000000, -234.000000)" id="PARTNER-TAG">
            <g transform="translate(577.000000, 193.000000)">
                <g id="CLICO" transform="translate(191.000000, 41.000000)">
                    <circle id="Oval" fill="#0580FA" cx="32.5" cy="32.5" r="32.5"></circle>
                    <g id="CLOUD-ICON" transform="translate(11.000000, 14.000000)">
                        <g id="LOGO" transform="translate(17.294118, 18.529412)"></g>
                        <path d="M22.6574639,22.7589568 C23.6321914,19.3724731 26.6674017,17.0029831 30.1980019,17.0029831 C33.7584771,17.0029831 36.8150904,19.4130435 37.7621724,22.8455676 C38.74448,23.0060256 39.661687,23.3533806 40.4839182,23.845239 C40.9761868,22.6080716 41.2490748,21.255575 41.2490748,19.8378924 C41.2490748,14.1388995 36.8663684,9.49883808 31.3604514,9.21621325 C30.5284105,4.18640304 26.2580697,0.350910631 21.1012888,0.350910631 C15.9453997,0.350910631 11.6768426,4.18366796 10.8425722,9.2107431 C10.7003315,9.20481709 10.561658,9.18795077 10.4176338,9.18795077 C4.66379889,9.18795077 0.000178358181,13.9570168 0.000178358181,19.8378924 C0.000178358181,25.7201356 4.66379889,30.4892016 10.4176338,30.4892016 L15.411217,30.4892016 C15.5556871,26.3961559 18.6961287,23.0712116 22.6574639,22.7589568" id="Fill-3" fill="#FFFFFF"></path>
                        <path d="M36.7759567,25.2479133 L35.7195588,25.1934585 L35.5430534,24.1152526 C35.108376,21.456041 32.8989853,19.5256167 30.2900427,19.5256167 C27.6824172,19.5256167 25.4730266,21.4546796 25.0370319,24.112076 L24.8429638,25.2960151 L23.6746036,25.244283 C23.6746036,25.244283 23.4866825,25.2315769 23.4669244,25.2315769 C20.52429,25.2315769 18.1309298,27.7051882 18.1309298,30.7460376 C18.1309298,33.7873407 20.52429,36.2618596 23.4669244,36.2618596 L36.5050517,36.2618596 C39.4468079,36.2618596 41.8406072,33.7873407 41.8406072,30.7460376 C41.8406072,27.8104676 39.6158491,25.3953952 36.7759567,25.2479133" id="Fill-6" fill="#FFFFFF"></path>
                    </g>
                </g>
            </g>
        </g>
    </g>
</svg>