<?xml version="1.0" encoding="UTF-8"?>
<svg width="175px" height="32px" viewBox="0 0 175 32" version="1.1" xmlns="http://www.w3.org/2000/svg" xmlns:xlink="http://www.w3.org/1999/xlink">
    <!-- Generator: sketchtool 61.1 (101010) - https://sketch.com -->
    <title>C93F5452-B4BB-49F9-94A5-36BE2D1BB447@3x</title>
    <desc>Created with sketchtool.</desc>
    <g id="Login" stroke="none" stroke-width="1" fill="none" fill-rule="evenodd">
        <g id="Trial" transform="translate(-200.000000, -30.000000)">
            <g id="Nav">
                <g id="LOGO" transform="translate(200.000000, 30.000000)">
                    <g transform="translate(14.000000, 15.000000)"></g>
                    <path d="M79.4082307,16.545962 C79.3028187,16.9979846 79.2363171,17.4270655 79.1843185,17.8116969 L90.7605448,17.8116969 C90.5192997,14.533189 88.8825828,11.6131446 85.0849184,11.6131446 C82.3583538,11.6131446 80.8397833,13.3025835 80.0891644,14.7038176 C79.7563028,15.3196581 79.5479548,15.9491201 79.4082307,16.545962 L79.4082307,16.545962 Z M92.7421502,20.9414424 C92.3654259,20.9708364 91.9752597,20.9805149 91.6045488,20.9805149 L79.1075587,20.9805149 C79.3403142,26.3653549 82.3229806,28.2652118 85.4566905,28.2652118 C88.568469,28.2652118 89.7180972,26.841753 91.208723,24.5242859 C91.649119,23.8557513 92.101542,23.2893789 93.0070954,23.2893789 C93.9833951,23.2893789 94.6940422,24.1192221 94.6940422,24.9988917 C94.6940422,25.7713807 94.2738089,26.5524729 93.945192,27.0941113 C92.9582804,28.7466284 90.7637284,31.5999985 85.291144,31.5999985 C78.0428261,31.5999985 74.7746981,26.4169736 74.7746981,19.8983134 C74.7746981,13.5043985 78.0831515,8.27871641 85.2090782,8.27871641 C93.9713682,8.27871641 95.1068472,16.4047273 95.1068472,18.3085274 C95.1068472,20.0105125 94.4467837,20.812754 92.7421502,20.9414424 L92.7421502,20.9414424 Z M43.7149253,19.9976078 C43.7149253,26.5732637 47.1539057,28.0322105 50.1981214,28.0322105 C52.8129067,28.0322105 56.4329978,26.3076422 56.4329978,19.9976078 C56.4329978,15.3630322 53.8886051,11.8977647 50.1454153,11.8977647 C48.0859889,11.8977647 43.7149253,12.8702764 43.7149253,19.9976078 L43.7149253,19.9976078 Z M41.6721242,7.10542736e-15 C43.7517134,7.10542736e-15 43.7563119,1.87763224 43.7563119,3.38174543 L43.7563119,11.0525076 C44.7948684,9.77171722 47.2083804,8.27871641 50.981991,8.27871641 C58.6579707,8.27871641 60.7563076,15.0862983 60.7563076,19.7305524 C60.7563076,23.928161 58.9650099,31.5999985 50.8995715,31.5999985 C46.1401104,31.5999985 39.5331082,31.0085336 39.5331082,20.0291526 L39.516129,3.30073266 C39.516129,1.7973364 39.5207275,7.10542736e-15 41.599963,7.10542736e-15 L41.6721242,7.10542736e-15 Z M116.795911,24.7504764 C116.70288,28.6813881 117.366835,31.6129032 112.436167,31.6129032 L104.752405,31.5999985 C99.8252754,31.5999985 97.4952442,28.3139629 97.4952442,25.0824137 C97.4952442,19.8470531 102.306704,18.8533921 104.769031,18.3619385 C105.716678,18.1536711 109.954031,17.4044823 110.778226,17.195498 C111.338537,17.0442264 111.759832,16.9273672 112.548654,16.6549349 C112.446425,13.2792834 111.872672,11.6131446 108.012044,11.6131446 C105.557853,11.6131446 103.116042,12.3623335 102.290432,14.4166883 C101.897082,15.4361587 101.528848,16.3799933 100.214027,16.3799933 C99.1903269,16.3799933 98.2798213,15.5867134 98.2798213,14.5041534 C98.2798213,13.0624129 99.8330575,8.27871641 107.764785,8.27871641 C116.202349,8.27871641 116.795911,12.4612695 116.795911,17.5564708 L116.795911,24.7504764 Z M112.561035,27.4396702 C112.641332,24.6110341 112.582612,22.1695386 112.5957,19.9578183 C112.098353,20.1445779 111.457038,20.3610899 110.600299,20.5543017 C108.047417,21.1382389 106.030792,21.4296698 104.34243,21.8885032 C102.133375,22.5064944 101.8182,24.0937711 101.8182,24.8318477 C101.8182,26.1785953 102.858172,28.1322219 105.621171,28.2867197 C105.621171,28.2867197 112.526723,28.6211662 112.561035,27.4396702 L112.561035,27.4396702 Z M172.634949,20.9414424 C172.258225,20.9708364 171.869474,20.9805149 171.497348,20.9805149 L159.001065,20.9805149 C159.233467,26.3653549 162.216487,28.2652118 165.34949,28.2652118 C168.462329,28.2652118 169.611604,26.841753 171.102229,24.5242859 C171.543333,23.8557513 171.995049,23.2893789 172.900956,23.2893789 C173.876548,23.2893789 174.587902,24.1192221 174.587902,24.9988917 C174.587902,25.7713807 174.167315,26.5524729 173.838345,27.0941113 C172.851079,28.7466284 170.657235,31.5999985 165.184651,31.5999985 C157.936333,31.5999985 154.668205,26.4169736 154.668205,19.8983134 C154.668205,13.5043985 157.977012,8.27871641 165.102231,8.27871641 C173.864875,8.27871641 175,16.4047273 175,18.3085274 C175,20.0105125 174.340644,20.812754 172.634949,20.9414424 L172.634949,20.9414424 Z M159.302091,16.545962 C159.196325,16.9979846 159.12947,17.4270655 159.078179,17.8116969 L170.654405,17.8116969 C170.41316,14.533189 168.775736,11.6131446 164.978071,11.6131446 C162.251153,11.6131446 160.73329,13.3025835 159.983025,14.7038176 C159.649456,15.3196581 159.441461,15.9491201 159.302091,16.545962 L159.302091,16.545962 Z M62.3785216,28.2989074 C62.3785216,29.8030206 62.3831201,31.5999985 64.4630629,31.5999985 L64.5345168,31.5999985 C66.6144596,31.5999985 66.6190582,29.7223663 66.6190582,28.2186116 L66.6222417,21.319263 C66.6222417,20.0782621 66.5872223,18.8795599 66.6133985,17.7805106 C66.685206,14.8357322 67.1068543,12.3985383 70.8312962,12.4505156 C72.0640515,12.4680803 72.8323569,13.0771099 73.8061805,13.0771099 C74.5108142,13.0771099 75.5454797,12.313224 75.5759006,11.0754493 C75.6339126,8.7128158 71.12171,7.15959311 66.8022912,8.98524813 C64.6112766,9.91187648 62.4206156,11.9350449 62.399038,16.3022067 L62.3785216,28.2989074 Z M121.060856,4.97296526 C121.060856,3.469569 121.066161,1.67223261 123.145397,1.67223261 L123.217558,1.67223261 C125.297501,1.67223261 125.301746,3.54986484 125.301746,5.05397803 L125.309528,8.45113739 L127.35622,8.450062 C128.446068,8.450062 129.908749,8.8723321 129.908749,10.4061978 C129.908749,11.6991759 128.575887,12.4035568 127.479319,12.4035568 L125.309528,12.4035568 L125.309528,24.621788 C125.309528,26.8801086 125.466585,27.9723471 127.130185,27.9723471 C127.460217,27.9723471 128.945183,27.7217811 129.234536,27.7217811 C130.1079,27.7217811 130.797323,28.322566 130.797323,29.3477719 C130.797323,31.3981835 127.781406,31.4752532 126.428735,31.4752532 C123.232061,31.4752532 121.489578,30.1170347 121.149642,27.0546803 C121.069699,26.3327347 121.068991,25.596092 121.068991,24.9153697 L121.060856,4.97296526 Z M133.74497,3.30073266 C133.74497,1.7973364 133.749922,7.10542736e-15 135.829865,7.10542736e-15 L135.901672,7.10542736e-15 C137.981262,7.10542736e-15 137.98586,1.87763224 137.98586,3.38174543 L137.984799,11.2984136 C139.412814,9.66489508 141.257172,8.27871641 144.385929,8.27871641 C147.077828,8.27871641 149.065801,9.27847134 150.531665,11.0270567 C151.330038,11.9479496 151.714898,13.1308794 151.905913,14.2051948 C152.095867,15.2741332 152.096928,16.2685112 152.096928,16.8456375 L152.102588,28.2186116 C152.102588,29.7223663 152.098343,31.5999985 150.018754,31.5999985 L149.946947,31.5999985 C147.867357,31.5999985 147.862759,29.8030206 147.862759,28.2989074 L147.856745,17.7238733 C147.856745,16.4896832 147.766544,14.7052515 147.240898,13.7926032 C146.52636,12.5731101 145.119215,11.9067263 143.725158,11.9067263 C141.808286,11.9067263 139.823497,12.982834 138.937752,14.700233 C138.396543,15.7182696 137.984799,16.5785822 137.984799,21.068697 L137.98586,28.2186116 C137.98586,29.7223663 137.981262,31.5999985 135.901672,31.5999985 L135.829865,31.5999985 C133.749922,31.5999985 133.74497,29.8030206 133.74497,28.2989074 L133.74497,3.30073266 Z" id="Fill-1" fill="#FFFFFF"></path>
                    <g id="Group-17" transform="translate(0.000144, 0.284071)" fill="#FFFFFF">
                        <path d="M18.3416121,18.1398469 C19.1306772,15.3984078 21.5877523,13.4802491 24.4458572,13.4802491 C27.3281466,13.4802491 29.8025479,15.4312504 30.5692332,18.2099604 C31.3644347,18.3398549 32.1069356,18.6210471 32.7725513,19.0192182 C33.1710544,18.0177017 33.3919638,16.9228236 33.3919638,15.7751757 C33.3919638,11.1617053 29.8440586,7.40546508 25.3868877,7.17667355 C24.7133307,3.10492242 21.2563882,0 17.0818513,0 C12.9080363,0 9.45253768,3.10270831 8.77717593,7.17224533 C8.66202874,7.16744809 8.54976925,7.1537944 8.43317821,7.1537944 C3.77531186,7.1537944 -3.55271368e-15,11.0144669 -3.55271368e-15,15.7751757 C-3.55271368e-15,20.5369916 3.77531186,24.3976641 8.43317821,24.3976641 L12.4756027,24.3976641 C12.5925547,21.0842462 15.134817,18.3926246 18.3416121,18.1398469" id="Fill-3"></path>
                        <path d="M29.7708682,20.1547165 L28.9156889,20.110634 L28.7728036,19.2378006 C28.4209219,17.0851055 26.6323676,15.5223811 24.5203664,15.5223811 C22.4094315,15.5223811 20.6208771,17.0840034 20.2679291,19.2352291 L20.1108263,20.193656 L19.1650109,20.1517777 C19.1650109,20.1517777 19.0128843,20.1414917 18.9968897,20.1414917 C16.614757,20.1414917 14.677275,22.143939 14.677275,24.6055789 C14.677275,27.0675862 16.614757,29.0707682 18.9968897,29.0707682 L29.5515641,29.0707682 C31.9329858,29.0707682 33.8708234,27.0675862 33.8708234,24.6055789 C33.8708234,22.2291652 32.0698287,20.2741066 29.7708682,20.1547165" id="Fill-6"></path>
                    </g>
                </g>
            </g>
        </g>
    </g>
</svg>